M48
; DRILL file KiCad 10.0.3 date 2026-06-02T11:58:06
; FORMAT={-:-/ absolute / metric / decimal}
; #@! TF.CreationDate,2026-06-02T11:58:06-04:00
; #@! TF.GenerationSoftware,Kicad,Pcbnew,10.0.3
; #@! TF.FileFunction,Plated,1,2,PTH
FMAT,2
METRIC
; #@! TA.AperFunction,Plated,PTH,ViaDrill
T1C0.200
; #@! TA.AperFunction,Plated,PTH,ViaDrill
T2C0.300
; #@! TA.AperFunction,Plated,PTH,ComponentDrill
T3C0.600
; #@! TA.AperFunction,Plated,PTH,ComponentDrill
T4C1.000
%
G90
G05
T1
X143.695Y-42.97
X147.238Y-62.099
X147.39Y-40.635
X147.6Y-42.62
X149.615Y-42.37
T2
X143.253Y-61.891
X143.333Y-68.171
X143.68Y-70.41
X143.853Y-62.486
X143.982Y-66.418
X144.488Y-63.12
X144.93Y-45.22
X144.987Y-42.192
X145.771Y-68.406
X146.177Y-58.61
X146.67Y-46.55
X146.731Y-68.406
X146.739Y-73.611
X147.371Y-66.096
X147.51Y-64.544
X147.622Y-65.336
X148.615Y-52.818
X148.637Y-65.69
X149.329Y-66.091
X149.359Y-46.839
X149.745Y-56.396
X150.142Y-61.49
X150.24Y-59.235
X150.245Y-68.703
X151.042Y-68.635
X151.627Y-61.074
X151.658Y-63.638
X151.778Y-41.849
X151.925Y-65.407
X152.339Y-66.092
X153.58Y-42.63
X153.639Y-60.212
X153.961Y-56.045
X154.493Y-60.417
X155.867Y-83.189
T4
X141.11Y-35.87
X141.11Y-38.41
X141.11Y-40.95
X141.11Y-43.49
X141.11Y-46.03
X141.11Y-48.57
X141.11Y-51.11
X141.11Y-53.65
X141.11Y-56.19
X141.11Y-58.73
X141.11Y-61.27
X141.11Y-63.81
X141.11Y-66.35
X141.11Y-68.89
X141.11Y-71.43
X141.11Y-73.97
X141.11Y-76.51
X141.11Y-79.05
X141.11Y-81.59
X141.11Y-84.13
X147.46Y-83.89
X150.0Y-83.89
X152.54Y-83.89
X158.89Y-35.87
X158.89Y-38.41
X158.89Y-40.95
X158.89Y-43.49
X158.89Y-46.03
X158.89Y-48.57
X158.89Y-51.11
X158.89Y-53.65
X158.89Y-56.19
X158.89Y-58.73
X158.89Y-61.27
X158.89Y-63.81
X158.89Y-66.35
X158.89Y-68.89
X158.89Y-71.43
X158.89Y-73.97
X158.89Y-76.51
X158.89Y-79.05
X158.89Y-81.59
X158.89Y-84.13
T3
G00X145.52Y-35.84
M15
G01X145.52Y-35.24
M16
G05
G00X145.52Y-40.27
M15
G01X145.52Y-39.17
M16
G05
G00X154.16Y-35.84
M15
G01X154.16Y-35.24
M16
G05
G00X154.16Y-40.27
M15
G01X154.16Y-39.17
M16
G05
M30
